<svg id="Layer_2" xmlns="http://www.w3.org/2000/svg" viewBox="0 0 522.4 134">
  <style>
    .st1{fill:#5c6f73}
  </style>
  <g id="XMLID_2_">
    <linearGradient id="XMLID_94_" gradientUnits="userSpaceOnUse" x1="24.1981" y1="138.4575" x2="133.5203" y2="29.1353">
      <stop offset=".05" stop-color="#d71586"/>
      <stop offset=".1007" stop-color="#ca338c"/>
      <stop offset=".2314" stop-color="#ab559b"/>
      <stop offset=".364" stop-color="#8f65a7"/>
      <stop offset=".4968" stop-color="#766fb0"/>
      <stop offset=".63" stop-color="#6175b7"/>
      <stop offset=".764" stop-color="#5178bb"/>
      <stop offset=".9" stop-color="#4b79bd"/>
    </linearGradient>
    <path id="XMLID_4_" d="M122.3 76.8L94.7 49.3 114.4 10 148 76.8h-25.7zm-35.5 23.6L59.1 72.9l19.8-39.3 33.6 66.8H86.8zM9.7 124l33.6-66.8L76.9 124H9.7z" fill-rule="evenodd" clip-rule="evenodd" fill="url(#XMLID_94_)"/>
  </g>
  <g id="XMLID_1_">
    <path id="XMLID_3_" class="st1" d="M184 55.4h32.9v9.7h-11.1v58h-10.6v-58H184v-9.7z"/>
    <path id="XMLID_10_" class="st1" d="M231.7 55.4v52.2c0 4.8 2.1 6.6 5.5 6.6s5.5-1.7 5.5-6.6V55.4h10.1V107c0 10.8-5.4 17-15.9 17s-15.9-6.2-15.9-17V55.4h10.7z"/>
    <path id="XMLID_12_" class="st1" d="M291.7 72.1v8.8c0 10.8-5.2 16.7-15.9 16.7h-5V123h-10.6V55.4h15.7c10.5 0 15.8 5.9 15.8 16.7zm-21-7V88h5c3.4 0 5.2-1.5 5.2-6.4V71.5c0-4.8-1.8-6.4-5.2-6.4h-5z"/>
    <path id="XMLID_15_" class="st1" d="M296.6 55.4h10.6v58h17.5v9.7h-28.2V55.4z"/>
    <path id="XMLID_17_" class="st1" d="M340.1 83.9h14.6v9.7h-14.6v19.8h18.4v9.7h-29V55.4h29v9.7h-18.4v18.8z"/>
    <path id="XMLID_19_" class="st1" d="M387.3 123.1c-.6-1.7-1-2.8-1-8.3v-10.6c0-6.3-2.1-8.6-7-8.6h-3.7v27.6H365V55.4h16.1c11 0 15.8 5.1 15.8 15.6v5.3c0 7-2.2 11.5-7 13.7 5.3 2.2 7.1 7.3 7.1 14.4v10.4c0 3.3.1 5.7 1.2 8.2h-10.9zm-11.6-58v20.8h4.2c4 0 6.4-1.7 6.4-7.2V72c0-4.8-1.6-7-5.4-7h-5.2z"/>
    <path id="XMLID_22_" class="st1" d="M403.1 71.7c0-10.8 5.7-17 16.2-17s16.2 6.2 16.2 17v35.2c0 10.8-5.7 17-16.2 17s-16.2-6.2-16.2-17V71.7zm10.6 35.8c0 4.8 2.1 6.7 5.5 6.7s5.5-1.8 5.5-6.7V71c0-4.8-2.1-6.7-5.5-6.7s-5.5 1.8-5.5 6.7v36.5z"/>
    <path id="XMLID_25_" class="st1" d="M451.8 74.1v49h-9.6V55.4h13.4l10.9 40.5V55.4h9.5v67.7h-11l-13.2-49z"/>
    <path id="XMLID_27_" class="st1" d="M494.3 83.9h14.6v9.7h-14.6v19.8h18.4v9.7h-29V55.4h29v9.7h-18.4v18.8z"/>
  </g>
</svg>
